<svg xmlns="http://www.w3.org/2000/svg" xmlns:xlink="http://www.w3.org/1999/xlink" width="840" height="170.26"><rect width="840" height="170.26" rx="0" ry="0" class="a"></rect><svg height="130.26" viewBox="0 0 80 13.026" width="800" x="20" xmlns="http://www.w3.org/2000/svg" xmlns:xlink="http://www.w3.org/1999/xlink" y="20"><style>.a{fill:rgb(247,247,247)}.b{font-family:'Fira Code',Monaco,Consolas,Menlo,'Bitstream Vera Sans Mono','Powerline Symbols',monospace}.c{fill:rgb(101,123,131);white-space:pre}.d{fill:transparent}.e{fill:rgb(101,123,131)}.g{animation-duration:6.52485738902396s;animation-iteration-count:infinite;animation-name:f;animation-timing-function:steps(1,end)}@keyframes f{0%{transform:translateX(-0px)}0%{transform:translateX(-80px)}0.6%{transform:translateX(-160px)}1.6%{transform:translateX(-240px)}2.2%{transform:translateX(-320px)}2.8%{transform:translateX(-400px)}4%{transform:translateX(-480px)}4.5%{transform:translateX(-560px)}5.3%{transform:translateX(-640px)}6.4%{transform:translateX(-720px)}7.1%{transform:translateX(-800px)}7.9%{transform:translateX(-880px)}7.9%{transform:translateX(-960px)}8%{transform:translateX(-1040px)}8%{transform:translateX(-1120px)}8%{transform:translateX(-1200px)}100%{transform:translateX(-1280px)}}</style><g font-family="&#x27;Fira Code&#x27;,Monaco,Consolas,Menlo,&#x27;Bitstream Vera Sans Mono&#x27;,&#x27;Powerline Symbols&#x27;,monospace" font-size="1.67" class="b"><defs><symbol id="1"><text font-size="1.67" x="0" y="1.67" class="c">&gt;</text><text font-size="1.67" x="2.004" y="1.67" class="c">print(res)</text></symbol><symbol id="2"><text font-size="1.67" x="0" y="1.67" class="c">──</text><text font-size="1.67" x="3.006" y="1.67" class="c">ODP</text><text font-size="1.67" x="7.013999999999999" y="1.67" class="c">bootstrap</text><text font-size="1.67" x="17.034" y="1.67" class="c">simulation</text><text font-size="1.67" x="28.055999999999997" y="1.67" class="c">test</text><text font-size="1.67" x="33.065999999999995" y="1.67" class="c">───────────────────────────────────────────────</text></symbol><symbol id="3"><text font-size="1.67" x="0" y="1.67" class="c">•</text><text font-size="1.67" x="2.004" y="1.67" class="c">bootstrap</text><text font-size="1.67" x="12.024" y="1.67" class="c">iterations:</text><text font-size="1.67" x="24.048" y="1.67" class="c">100</text></symbol><symbol id="4"><text font-size="1.67" x="0" y="1.67" class="c">•</text><text font-size="1.67" x="2.004" y="1.67" class="c">simulation</text><text font-size="1.67" x="13.026" y="1.67" class="c">iterations:</text><text font-size="1.67" x="25.05" y="1.67" class="c">100</text></symbol><symbol id="5"><text font-size="1.67" x="0" y="1.67" class="c">•</text><text font-size="1.67" x="2.004" y="1.67" class="c">status:</text></symbol><symbol id="a"><rect height="6" width="80" x="0" y="0" class="d"></rect></symbol><symbol id="b"><rect height="2.171" width="1.1022" class="e"></rect></symbol></defs><rect height="13.026" width="80" class="a"></rect><g class="g"><svg x="0" y="0" width="1360"><svg x="0"><use xlink:href="#a"></use><use xlink:href="#b" x="-0.0040000000000000036" y="0"></use></svg><svg x="80"><use xlink:href="#a"></use><use xlink:href="#b" x="1.996" y="0"></use><text font-size="1.67" x="0" y="1.67" class="c">&gt;</text></svg><svg x="160"><use xlink:href="#a"></use><use xlink:href="#b" x="2.996" y="0"></use><text font-size="1.67" x="0" y="1.67" class="c">&gt;</text><text font-size="1.67" x="2.004" y="1.67" class="c">p</text></svg><svg x="240"><use xlink:href="#a"></use><use xlink:href="#b" x="3.996" y="0"></use><text font-size="1.67" x="0" y="1.67" class="c">&gt;</text><text font-size="1.67" x="2.004" y="1.67" class="c">pr</text></svg><svg x="320"><use xlink:href="#a"></use><use xlink:href="#b" x="4.996" y="0"></use><text font-size="1.67" x="0" y="1.67" class="c">&gt;</text><text font-size="1.67" x="2.004" y="1.67" class="c">pri</text></svg><svg x="400"><use xlink:href="#a"></use><use xlink:href="#b" x="5.996" y="0"></use><text font-size="1.67" x="0" y="1.67" class="c">&gt;</text><text font-size="1.67" x="2.004" y="1.67" class="c">prin</text></svg><svg x="480"><use xlink:href="#a"></use><use xlink:href="#b" x="6.996" y="0"></use><text font-size="1.67" x="0" y="1.67" class="c">&gt;</text><text font-size="1.67" x="2.004" y="1.67" class="c">print</text></svg><svg x="560"><use xlink:href="#a"></use><use xlink:href="#b" x="7.996" y="0"></use><text font-size="1.67" x="0" y="1.67" class="c">&gt;</text><text font-size="1.67" x="2.004" y="1.67" class="c">print(</text></svg><svg x="640"><use xlink:href="#a"></use><use xlink:href="#b" x="8.996" y="0"></use><text font-size="1.67" x="0" y="1.67" class="c">&gt;</text><text font-size="1.67" x="2.004" y="1.67" class="c">print(r</text></svg><svg x="720"><use xlink:href="#a"></use><use xlink:href="#b" x="9.996" y="0"></use><text font-size="1.67" x="0" y="1.67" class="c">&gt;</text><text font-size="1.67" x="2.004" y="1.67" class="c">print(re</text></svg><svg x="800"><use xlink:href="#a"></use><use xlink:href="#b" x="10.996" y="0"></use><text font-size="1.67" x="0" y="1.67" class="c">&gt;</text><text font-size="1.67" x="2.004" y="1.67" class="c">print(res</text></svg><svg x="880"><use xlink:href="#a"></use><use xlink:href="#b" x="11.996" y="0"></use><use xlink:href="#1" y="0"></use></svg><svg x="960"><use xlink:href="#a"></use><use xlink:href="#b" x="-0.0040000000000000036" y="2.146"></use><use xlink:href="#1" y="0"></use></svg><svg x="1040"><use xlink:href="#a"></use><use xlink:href="#b" x="-0.0040000000000000036" y="10.83"></use><use xlink:href="#1" y="0"></use><use xlink:href="#2" y="2.171"></use><use xlink:href="#3" y="4.342"></use><use xlink:href="#4" y="6.513"></use><use xlink:href="#5" y="8.684"></use></svg><svg x="1120"><use xlink:href="#a"></use><use xlink:href="#b" x="0.996" y="10.83"></use><use xlink:href="#1" y="0"></use><use xlink:href="#2" y="2.171"></use><use xlink:href="#3" y="4.342"></use><use xlink:href="#4" y="6.513"></use><use xlink:href="#5" y="8.684"></use></svg><svg x="1200"><use xlink:href="#a"></use><use xlink:href="#b" x="0.996" y="10.83"></use><use xlink:href="#1" y="0"></use><use xlink:href="#2" y="2.171"></use><use xlink:href="#3" y="4.342"></use><use xlink:href="#4" y="6.513"></use><use xlink:href="#5" y="8.684"></use></svg><svg x="1280"><use xlink:href="#a"></use><use xlink:href="#b" x="0.996" y="10.83"></use><use xlink:href="#1" y="0"></use><use xlink:href="#2" y="2.171"></use><use xlink:href="#3" y="4.342"></use><use xlink:href="#4" y="6.513"></use><use xlink:href="#5" y="8.684"></use></svg></svg></g></g></svg></svg>